name rise30.6535peak61.5555fall82.9339.mot
datacolumns 19
datarows 23
range 22.18824700000000 22.22490800000000
endheader
time	ground_force1_vx	ground_force1_vy	ground_force1_vz	ground_force1_px	ground_force1_py	ground_force1_pz	ground_force2_vx	ground_force2_vy	ground_force2_vz	ground_force2_px	ground_force2_py	ground_force2_pz	ground_torque1_x	ground_torque1_y	ground_torque1_z	ground_torque2_x	ground_torque2_y	ground_torque2_z	
22.18824700000000	-33.11406900000000	815.29625399999998	47.42275700000000	0.15716700000000	0.00000000000000	0.07331600000000	0.00000000000000	0.00000000000000	0.00000000000000	0.00000000000000	0.00000000000000	0.00000000000000	0.00000000000000	19.74770200000000	0.00000000000000	0.00000000000000	0.00000000000000	0.00000000000000	
22.18991000000000	-33.50211100000000	813.80868299999997	47.37770300000000	0.15628100000000	0.00000000000000	0.07329700000000	0.00000000000000	0.00000000000000	0.00000000000000	0.00000000000000	0.00000000000000	0.00000000000000	0.00000000000000	19.65617600000000	0.00000000000000	0.00000000000000	0.00000000000000	0.00000000000000	
22.19158300000000	-33.90828400000000	812.20513600000004	47.31414900000000	0.15538800000000	0.00000000000000	0.07327700000000	0.00000000000000	0.00000000000000	0.00000000000000	0.00000000000000	0.00000000000000	0.00000000000000	0.00000000000000	19.56273300000000	0.00000000000000	0.00000000000000	0.00000000000000	0.00000000000000	
22.19324500000000	-34.33298400000000	810.48511499999995	47.23154300000000	0.15448700000000	0.00000000000000	0.07325400000000	0.00000000000000	0.00000000000000	0.00000000000000	0.00000000000000	0.00000000000000	0.00000000000000	0.00000000000000	19.46745400000000	0.00000000000000	0.00000000000000	0.00000000000000	0.00000000000000	
22.19491500000000	-34.77654700000000	808.64814300000000	47.12936100000000	0.15357900000000	0.00000000000000	0.07322900000000	-1.34000900000000	3.73902400000000	0.33446200000000	0.00000000000000	0.00000000000000	0.00000000000000	0.00000000000000	19.37042200000000	0.00000000000000	0.00000000000000	-0.04021200000000	0.00000000000000	
22.19658700000000	-35.23923800000000	806.69375800000000	47.00711300000000	0.15266400000000	0.00000000000000	0.07320100000000	-2.18410800000000	7.22573400000000	0.56302800000000	0.00000000000000	0.00000000000000	0.00000000000000	0.00000000000000	19.27172100000000	0.00000000000000	0.00000000000000	-0.05589700000000	0.00000000000000	
22.19824300000000	-35.72125400000000	804.62150799999995	46.86434500000000	0.15174400000000	0.00000000000000	0.07317000000000	-3.14713000000000	11.44196300000000	0.82724900000000	0.00000000000000	0.00000000000000	0.00000000000000	0.00000000000000	19.17143800000000	0.00000000000000	0.00000000000000	-0.07196200000000	0.00000000000000	
22.19990900000000	-36.22272200000000	802.43093999999996	46.70063800000000	0.15081900000000	0.00000000000000	0.07313700000000	-4.20229500000000	16.34407000000000	1.12074300000000	0.00000000000000	0.00000000000000	0.00000000000000	0.00000000000000	19.06965600000000	0.00000000000000	0.00000000000000	-0.08745800000000	0.00000000000000	
22.20159500000000	-36.74369200000000	800.12159599999995	46.51561200000000	0.14988900000000	0.00000000000000	0.07310100000000	-5.31546100000000	21.85642100000000	1.43506700000000	0.00000000000000	0.00000000000000	0.00000000000000	0.00000000000000	18.96646400000000	0.00000000000000	0.00000000000000	-0.10133700000000	0.00000000000000	
22.20324600000000	-37.28413800000000	797.69300399999997	46.30892700000000	0.14895600000000	0.00000000000000	0.07306100000000	-6.44735300000000	27.87712500000000	1.76025300000000	0.36233100000000	0.00000000000000	-0.10242800000000	0.00000000000000	18.86194500000000	0.00000000000000	0.00000000000000	-0.13512800000000	0.00000000000000	
22.20490800000000	-37.84395600000000	795.14467500000001	46.08028500000000	0.14801900000000	0.00000000000000	0.07301900000000	-7.55643400000000	34.28663200000000	2.08554100000000	0.36372100000000	0.00000000000000	-0.10243400000000	0.00000000000000	18.75618400000000	0.00000000000000	0.00000000000000	-0.13550600000000	0.00000000000000	
22.20658000000000	-38.42296100000000	792.47609499999999	45.82943200000000	0.14708100000000	0.00000000000000	0.07297400000000	-8.60203700000000	40.95803700000000	2.40018300000000	0.36513800000000	0.00000000000000	-0.10243800000000	0.00000000000000	18.64926300000000	0.00000000000000	0.00000000000000	-0.12773200000000	0.00000000000000	
22.20824800000000	-39.02088600000000	789.68672100000003	45.55615700000000	0.14614100000000	0.00000000000000	0.07292500000000	-9.54732900000000	47.76763400000000	2.69421600000000	0.36657500000000	0.00000000000000	-0.10244200000000	0.00000000000000	18.54126200000000	0.00000000000000	0.00000000000000	-0.11105000000000	0.00000000000000	
22.20990900000000	-39.63738200000000	786.77597500000002	45.26029700000000	0.14520000000000	0.00000000000000	0.07287300000000	-10.36174200000000	54.60430600000000	2.95912200000000	0.36802700000000	0.00000000000000	-0.10244400000000	0.00000000000000	18.43225800000000	0.00000000000000	0.00000000000000	-0.08512800000000	0.00000000000000	
22.21159100000000	-40.27201400000000	783.74323800000002	44.94173500000000	0.14426000000000	0.00000000000000	0.07281700000000	-11.02261600000000	61.37676100000000	3.18827900000000	0.36949000000000	0.00000000000000	-0.10244600000000	0.00000000000000	18.32232200000000	0.00000000000000	0.00000000000000	-0.05007400000000	0.00000000000000	
22.21324500000000	-40.92426000000000	780.58785000000000	44.60040500000000	0.14332100000000	0.00000000000000	0.07275800000000	-11.51598000000000	68.01810900000000	3.37720400000000	0.37095900000000	0.00000000000000	-0.10244800000000	0.00000000000000	18.21152300000000	0.00000000000000	0.00000000000000	-0.00640900000000	0.00000000000000	
22.21490900000000	-41.59351600000000	777.30910500000005	44.23628600000000	0.14238500000000	0.00000000000000	0.07269600000000	-11.83650500000000	74.48771700000000	3.52357800000000	0.37243100000000	0.00000000000000	-0.10244800000000	0.00000000000000	18.09992500000000	0.00000000000000	0.00000000000000	0.04499200000000	0.00000000000000	
22.21659600000000	-42.27908600000000	773.90624800000001	43.84941100000000	0.14145100000000	0.00000000000000	0.07263000000000	-11.98676500000000	80.77059400000000	3.62709100000000	0.37390300000000	0.00000000000000	-0.10244900000000	0.00000000000000	17.98758400000000	0.00000000000000	0.00000000000000	0.10297000000000	0.00000000000000	
22.21824500000000	-42.98019100000000	770.37847199999999	43.43986100000000	0.14052200000000	0.00000000000000	0.07256000000000	-11.97596500000000	86.87476700000001	3.68915100000000	0.37537100000000	0.00000000000000	-0.10244900000000	0.00000000000000	17.87455300000000	0.00000000000000	0.00000000000000	0.16617200000000	0.00000000000000	
22.21991200000000	-43.69596200000000	766.72491600000001	43.00777000000000	0.13959700000000	0.00000000000000	0.07248600000000	-11.81835900000000	92.82720800000000	3.71249200000000	0.37683200000000	0.00000000000000	-0.10245000000000	0.00000000000000	17.76087400000000	0.00000000000000	0.00000000000000	0.23313700000000	0.00000000000000	
22.22159300000000	-44.42544400000000	762.94466799999998	42.55332300000000	0.13867800000000	0.00000000000000	0.07240900000000	-11.53150900000000	98.66891099999999	3.70075400000000	0.37828500000000	0.00000000000000	-0.10245000000000	0.00000000000000	17.64658500000000	0.00000000000000	0.00000000000000	0.30237600000000	0.00000000000000	
22.22324200000000	-45.16759600000000	759.03676199999995	42.07675500000000	0.13776700000000	0.00000000000000	0.07232800000000	-11.13459300000000	104.44966100000001	3.65804700000000	0.37972600000000	0.00000000000000	-0.10245100000000	0.00000000000000	17.53171500000000	0.00000000000000	0.00000000000000	0.37244100000000	0.00000000000000	
22.22490800000000	-45.92128900000000	755.00017700000001	41.57835500000000	0.13686200000000	0.00000000000000	0.07224400000000	-10.64685600000000	110.22298400000000	3.58856600000000	0.38115300000000	0.00000000000000	-0.10245200000000	0.00000000000000	17.41628400000000	0.00000000000000	0.00000000000000	0.44197500000000	0.00000000000000	
